# xmcd CD database file
#
# Track frame offsets:
#	150
#	9581
#	23483
#	41130
#	54872
#	64202
#	74657
#	87097
#	97962
#	109250
#
# Disc length: 1622 seconds
#
# Revision: 0
# Processed by: cddbd v1.5.1PL0 Copyright (c) Steve Scherf et al.
# Submitted via: CDex 1.51
#
DISCID=7c06540a
DTITLE=Mexicali Brass Vol 3 [Crown Collectors Series CCS3023] - Tijuana Taxi
DYEAR=1999
DGENRE=Jazz
TTITLE0=Tijuana Taxi
TTITLE1=Granada
TTITLE2=La Plolma
TTITLE3=Cherry Pie
TTITLE4=Toreador Song
TTITLE5=Don't Feel Sorry For Me
TTITLE6=Zorba The Greek
TTITLE7=Tequila
TTITLE8=Somebody Stole My Gal
TTITLE9=La Golondrina
EXTD=YEAR: 1999
EXTT0=
EXTT1=
EXTT2=
EXTT3=
EXTT4=
EXTT5=
EXTT6=
EXTT7=
EXTT8=
EXTT9=
PLAYORDER=
